<svg width="100" height="100" viewBox="0 0 100 100" fill="none" xmlns="http://www.w3.org/2000/svg">
<g filter="url(#filter0_i_2_10)">
<rect width="100" height="100" rx="15" fill="#151515"/>
</g>
<rect x="2.5" y="2.5" width="95" height="95" rx="12.5" stroke="#080808" stroke-width="5"/>
<g filter="url(#filter1_di_2_10)">
<path d="M20.8445 73V31.784H27.8205V67.624H48.9405V73H20.8445ZM68.2045 73.64C62.9138 73.64 58.8178 72.3387 55.9165 69.736C53.0152 67.1333 51.5645 63.144 51.5645 57.768C51.5645 52.904 52.8018 49.064 55.2765 46.248C57.7512 43.432 61.5058 42.024 66.5405 42.024C71.1485 42.024 74.6045 43.24 76.9085 45.672C79.2552 48.0613 80.4285 51.1547 80.4285 54.952V60.584H58.2205C58.5618 63.528 59.6285 65.5547 61.4205 66.664C63.2125 67.7733 65.9432 68.328 69.6125 68.328C71.1485 68.328 72.7272 68.1787 74.3485 67.88C75.9698 67.5813 77.3778 67.1973 78.5725 66.728V71.848C77.2072 72.4453 75.6285 72.8933 73.8365 73.192C72.0872 73.4907 70.2098 73.64 68.2045 73.64ZM58.2205 56.04H74.2845V53.928C74.2845 51.8373 73.7085 50.216 72.5565 49.064C71.4045 47.8693 69.4632 47.272 66.7325 47.272C63.4898 47.272 61.2498 47.976 60.0125 49.384C58.8178 50.792 58.2205 53.0107 58.2205 56.04Z" fill="#EFEFEF"/>
</g>
<defs>
<filter id="filter0_i_2_10" x="0" y="0" width="100" height="100" filterUnits="userSpaceOnUse" color-interpolation-filters="sRGB">
<feFlood flood-opacity="0" result="BackgroundImageFix"/>
<feBlend mode="normal" in="SourceGraphic" in2="BackgroundImageFix" result="shape"/>
<feColorMatrix in="SourceAlpha" type="matrix" values="0 0 0 0 0 0 0 0 0 0 0 0 0 0 0 0 0 0 127 0" result="hardAlpha"/>
<feOffset/>
<feGaussianBlur stdDeviation="10"/>
<feComposite in2="hardAlpha" operator="arithmetic" k2="-1" k3="1"/>
<feColorMatrix type="matrix" values="0 0 0 0 1 0 0 0 0 1 0 0 0 0 1 0 0 0 0.25 0"/>
<feBlend mode="normal" in2="shape" result="effect1_innerShadow_2_10"/>
</filter>
<filter id="filter1_di_2_10" x="20.8445" y="31.784" width="63.584" height="45.856" filterUnits="userSpaceOnUse" color-interpolation-filters="sRGB">
<feFlood flood-opacity="0" result="BackgroundImageFix"/>
<feColorMatrix in="SourceAlpha" type="matrix" values="0 0 0 0 0 0 0 0 0 0 0 0 0 0 0 0 0 0 127 0" result="hardAlpha"/>
<feOffset dx="2" dy="2"/>
<feGaussianBlur stdDeviation="1"/>
<feComposite in2="hardAlpha" operator="out"/>
<feColorMatrix type="matrix" values="0 0 0 0 1 0 0 0 0 1 0 0 0 0 1 0 0 0 0.25 0"/>
<feBlend mode="normal" in2="BackgroundImageFix" result="effect1_dropShadow_2_10"/>
<feBlend mode="normal" in="SourceGraphic" in2="effect1_dropShadow_2_10" result="shape"/>
<feColorMatrix in="SourceAlpha" type="matrix" values="0 0 0 0 0 0 0 0 0 0 0 0 0 0 0 0 0 0 127 0" result="hardAlpha"/>
<feOffset dy="1"/>
<feGaussianBlur stdDeviation="0.5"/>
<feComposite in2="hardAlpha" operator="arithmetic" k2="-1" k3="1"/>
<feColorMatrix type="matrix" values="0 0 0 0 0 0 0 0 0 0 0 0 0 0 0 0 0 0 0.25 0"/>
<feBlend mode="normal" in2="shape" result="effect2_innerShadow_2_10"/>
</filter>
</defs>
</svg>
