<svg width="280" height="100" viewBox="0 0 280 100" fill="none" xmlns="http://www.w3.org/2000/svg">
<g filter="url(#filter0_i_2_14)">
<rect width="280" height="100" rx="15" fill="#151515"/>
</g>
<rect x="2.5" y="2.5" width="275" height="95" rx="12.5" stroke="#080808" stroke-width="5"/>
<g filter="url(#filter1_di_2_14)">
<path d="M31.7195 73V31.784H38.6955V67.624H59.8155V73H31.7195ZM79.0795 73.64C73.7888 73.64 69.6928 72.3387 66.7915 69.736C63.8902 67.1333 62.4395 63.144 62.4395 57.768C62.4395 52.904 63.6768 49.064 66.1515 46.248C68.6262 43.432 72.3808 42.024 77.4155 42.024C82.0235 42.024 85.4795 43.24 87.7835 45.672C90.1302 48.0613 91.3035 51.1547 91.3035 54.952V60.584H69.0955C69.4368 63.528 70.5035 65.5547 72.2955 66.664C74.0875 67.7733 76.8182 68.328 80.4875 68.328C82.0235 68.328 83.6022 68.1787 85.2235 67.88C86.8448 67.5813 88.2528 67.1973 89.4475 66.728V71.848C88.0822 72.4453 86.5035 72.8933 84.7115 73.192C82.9622 73.4907 81.0848 73.64 79.0795 73.64ZM69.0955 56.04H85.1595V53.928C85.1595 51.8373 84.5835 50.216 83.4315 49.064C82.2795 47.8693 80.3382 47.272 77.6075 47.272C74.3648 47.272 72.1248 47.976 70.8875 49.384C69.6928 50.792 69.0955 53.0107 69.0955 56.04ZM113.455 73.64C108.164 73.64 104.068 72.3387 101.167 69.736C98.2652 67.1333 96.8145 63.144 96.8145 57.768C96.8145 52.904 98.0518 49.064 100.527 46.248C103.001 43.432 106.756 42.024 111.791 42.024C116.399 42.024 119.855 43.24 122.159 45.672C124.505 48.0613 125.679 51.1547 125.679 54.952V60.584H103.47C103.812 63.528 104.879 65.5547 106.671 66.664C108.463 67.7733 111.193 68.328 114.863 68.328C116.399 68.328 117.977 68.1787 119.599 67.88C121.22 67.5813 122.628 67.1973 123.823 66.728V71.848C122.457 72.4453 120.879 72.8933 119.087 73.192C117.337 73.4907 115.46 73.64 113.455 73.64ZM103.47 56.04H119.535V53.928C119.535 51.8373 118.959 50.216 117.807 49.064C116.655 47.8693 114.713 47.272 111.983 47.272C108.74 47.272 106.5 47.976 105.263 49.384C104.068 50.792 103.47 53.0107 103.47 56.04ZM129.94 73V69.352L146.516 48.36H130.708V42.664H155.092V46.952L138.836 67.624H155.54V73H129.94ZM176.517 73.64C171.226 73.64 167.13 72.3387 164.229 69.736C161.328 67.1333 159.877 63.144 159.877 57.768C159.877 52.904 161.114 49.064 163.589 46.248C166.064 43.432 169.818 42.024 174.853 42.024C179.461 42.024 182.917 43.24 185.221 45.672C187.568 48.0613 188.741 51.1547 188.741 54.952V60.584H166.533C166.874 63.528 167.941 65.5547 169.733 66.664C171.525 67.7733 174.256 68.328 177.925 68.328C179.461 68.328 181.04 68.1787 182.661 67.88C184.282 67.5813 185.69 67.1973 186.885 66.728V71.848C185.52 72.4453 183.941 72.8933 182.149 73.192C180.4 73.4907 178.522 73.64 176.517 73.64ZM166.533 56.04H182.597V53.928C182.597 51.8373 182.021 50.216 180.869 49.064C179.717 47.8693 177.776 47.272 175.045 47.272C171.802 47.272 169.562 47.976 168.325 49.384C167.13 50.792 166.533 53.0107 166.533 56.04ZM194.252 73V67.56H200.14V73H194.252ZM211.002 36.328V30.568H218.618V36.328H211.002ZM208.762 87.976C206.287 87.976 204.175 87.6347 202.425 86.952V81.896C203.151 82.1093 203.834 82.2587 204.474 82.344C205.156 82.472 205.775 82.536 206.33 82.536C208.335 82.536 209.722 82.1733 210.49 81.448C211.3 80.7227 211.706 79.528 211.706 77.864V47.976H207.098L207.738 42.664H218.618V78.504C218.618 81.3627 217.786 83.6453 216.122 85.352C214.5 87.1013 212.047 87.976 208.762 87.976ZM236.769 73.64C234.678 73.64 232.673 73.4907 230.753 73.192C228.876 72.8933 227.318 72.5307 226.081 72.104V66.216C227.532 66.7707 229.132 67.1973 230.881 67.496C232.63 67.7947 234.294 67.944 235.873 67.944C238.262 67.944 239.969 67.7307 240.993 67.304C242.017 66.8773 242.529 66.0453 242.529 64.808C242.529 63.912 242.209 63.208 241.569 62.696C240.972 62.184 240.054 61.7147 238.817 61.288C237.622 60.8613 236.086 60.3493 234.209 59.752C232.417 59.1547 230.86 58.5147 229.537 57.832C228.214 57.1067 227.19 56.1893 226.465 55.08C225.74 53.9707 225.377 52.52 225.377 50.728C225.377 47.9547 226.38 45.8213 228.385 44.328C230.39 42.792 233.612 42.024 238.049 42.024C239.798 42.024 241.462 42.152 243.041 42.408C244.62 42.664 245.964 42.984 247.073 43.368V49.192C245.878 48.7227 244.556 48.36 243.105 48.104C241.697 47.848 240.374 47.72 239.137 47.72C236.918 47.72 235.233 47.912 234.081 48.296C232.972 48.68 232.417 49.448 232.417 50.6C232.417 51.7947 232.993 52.648 234.145 53.16C235.34 53.6293 237.238 54.2907 239.841 55.144C242.23 55.8693 244.129 56.6373 245.537 57.448C246.945 58.2587 247.948 59.24 248.545 60.392C249.185 61.5013 249.505 62.952 249.505 64.744C249.505 67.7307 248.417 69.9707 246.241 71.464C244.065 72.9147 240.908 73.64 236.769 73.64Z" fill="#EFEFEF"/>
</g>
<defs>
<filter id="filter0_i_2_14" x="0" y="0" width="280" height="100" filterUnits="userSpaceOnUse" color-interpolation-filters="sRGB">
<feFlood flood-opacity="0" result="BackgroundImageFix"/>
<feBlend mode="normal" in="SourceGraphic" in2="BackgroundImageFix" result="shape"/>
<feColorMatrix in="SourceAlpha" type="matrix" values="0 0 0 0 0 0 0 0 0 0 0 0 0 0 0 0 0 0 127 0" result="hardAlpha"/>
<feOffset/>
<feGaussianBlur stdDeviation="10"/>
<feComposite in2="hardAlpha" operator="arithmetic" k2="-1" k3="1"/>
<feColorMatrix type="matrix" values="0 0 0 0 1 0 0 0 0 1 0 0 0 0 1 0 0 0 0.25 0"/>
<feBlend mode="normal" in2="shape" result="effect1_innerShadow_2_14"/>
</filter>
<filter id="filter1_di_2_14" x="31.7195" y="30.568" width="221.786" height="61.408" filterUnits="userSpaceOnUse" color-interpolation-filters="sRGB">
<feFlood flood-opacity="0" result="BackgroundImageFix"/>
<feColorMatrix in="SourceAlpha" type="matrix" values="0 0 0 0 0 0 0 0 0 0 0 0 0 0 0 0 0 0 127 0" result="hardAlpha"/>
<feOffset dx="2" dy="2"/>
<feGaussianBlur stdDeviation="1"/>
<feComposite in2="hardAlpha" operator="out"/>
<feColorMatrix type="matrix" values="0 0 0 0 1 0 0 0 0 1 0 0 0 0 1 0 0 0 0.25 0"/>
<feBlend mode="normal" in2="BackgroundImageFix" result="effect1_dropShadow_2_14"/>
<feBlend mode="normal" in="SourceGraphic" in2="effect1_dropShadow_2_14" result="shape"/>
<feColorMatrix in="SourceAlpha" type="matrix" values="0 0 0 0 0 0 0 0 0 0 0 0 0 0 0 0 0 0 127 0" result="hardAlpha"/>
<feOffset dy="1"/>
<feGaussianBlur stdDeviation="0.5"/>
<feComposite in2="hardAlpha" operator="arithmetic" k2="-1" k3="1"/>
<feColorMatrix type="matrix" values="0 0 0 0 0 0 0 0 0 0 0 0 0 0 0 0 0 0 0.25 0"/>
<feBlend mode="normal" in2="shape" result="effect2_innerShadow_2_14"/>
</filter>
</defs>
</svg>
